<svg width="72" height="73" viewBox="0 0 72 73" fill="none" xmlns="http://www.w3.org/2000/svg">
<g clip-path="url(#clip0_1114_6114)">
<rect y="0.210205" width="72" height="72" rx="16" fill="#559F4B"/>
<rect y="0.210205" width="72" height="72" rx="16" fill="url(#paint0_linear_1114_6114)" fill-opacity="0.25"/>
<path fill-rule="evenodd" clip-rule="evenodd" d="M41.0797 12.7917C34.6934 12.7917 29.2802 17.9784 29.2802 24.2541V35.5479C29.2802 36.4789 28.5255 37.2336 27.5945 37.2336C26.6636 37.2336 25.9089 36.4789 25.9089 35.5479V24.2541C25.9089 16.0069 32.9431 9.42041 41.0797 9.42041C49.2163 9.42041 56.2505 16.0069 56.2505 24.2541V47.516C56.2505 48.447 55.4958 49.2017 54.5649 49.2017C53.6339 49.2017 52.8792 48.447 52.8792 47.516V24.2541C52.8792 17.9784 47.466 12.7917 41.0797 12.7917Z" fill="white"/>
<path fill-rule="evenodd" clip-rule="evenodd" d="M47.8223 34.368C48.7533 34.368 49.5079 35.1227 49.5079 36.0536V47.516C49.5079 48.447 48.7533 49.2017 47.8223 49.2017C46.8913 49.2017 46.1366 48.447 46.1366 47.516V36.0536C46.1366 35.1227 46.8913 34.368 47.8223 34.368Z" fill="white"/>
<path fill-rule="evenodd" clip-rule="evenodd" d="M41.0797 34.368C42.0107 34.368 42.7654 35.1227 42.7654 36.0536V47.516C42.7654 48.447 42.0107 49.2017 41.0797 49.2017C40.1488 49.2017 39.3941 48.447 39.3941 47.516V36.0536C39.3941 35.1227 40.1488 34.368 41.0797 34.368Z" fill="white"/>
<path fill-rule="evenodd" clip-rule="evenodd" d="M13.4351 34.5366C14.3661 34.5366 15.1207 35.2912 15.1207 36.2222C15.1207 41.4197 18.8519 45.4933 23.8861 45.4933C28.9203 45.4933 32.6515 41.4197 32.6515 36.2222C32.6515 35.2912 33.4062 34.5366 34.3371 34.5366C35.2681 34.5366 36.0228 35.2912 36.0228 36.2222C36.0228 43.0567 30.9995 48.8646 23.8861 48.8646C16.7727 48.8646 11.7495 43.0567 11.7495 36.2222C11.7495 35.2912 12.5041 34.5366 13.4351 34.5366Z" fill="white"/>
<rect y="57.1563" width="72" height="15.0539" fill="white"/>
<path d="M26.0629 60.1563V68.1563H24.2504L21.3597 63.9532H21.3129V68.1563H19.141V60.1563H20.9847L23.8285 64.3438H23.891V60.1563H26.0629ZM35.8852 64.1563C35.8852 65.0469 35.712 65.7982 35.3657 66.4102C35.0193 67.0196 34.5519 67.4818 33.9633 67.7969C33.3748 68.1094 32.7185 68.2657 31.9946 68.2657C31.2654 68.2657 30.6066 68.1081 30.018 67.793C29.4321 67.4753 28.9659 67.0118 28.6196 66.4024C28.2758 65.7904 28.104 65.0417 28.104 64.1563C28.104 63.2657 28.2758 62.5157 28.6196 61.9063C28.9659 61.2943 29.4321 60.8321 30.018 60.5196C30.6066 60.2045 31.2654 60.0469 31.9946 60.0469C32.7185 60.0469 33.3748 60.2045 33.9633 60.5196C34.5519 60.8321 35.0193 61.2943 35.3657 61.9063C35.712 62.5157 35.8852 63.2657 35.8852 64.1563ZM33.6508 64.1563C33.6508 63.6771 33.587 63.2735 33.4594 62.9454C33.3344 62.6146 33.1482 62.3646 32.9008 62.1954C32.656 62.0235 32.354 61.9376 31.9946 61.9376C31.6352 61.9376 31.3318 62.0235 31.0844 62.1954C30.8396 62.3646 30.6534 62.6146 30.5258 62.9454C30.4008 63.2735 30.3383 63.6771 30.3383 64.1563C30.3383 64.6355 30.4008 65.0404 30.5258 65.3712C30.6534 65.6993 30.8396 65.9493 31.0844 66.1212C31.3318 66.2904 31.6352 66.3751 31.9946 66.3751C32.354 66.3751 32.656 66.2904 32.9008 66.1212C33.1482 65.9493 33.3344 65.6993 33.4594 65.3712C33.587 65.0404 33.6508 64.6355 33.6508 64.1563ZM41.0132 68.1563H37.9351V60.1563H40.982C41.8049 60.1563 42.5158 60.3165 43.1148 60.6368C43.7163 60.9545 44.1799 61.4128 44.5054 62.0118C44.8335 62.6081 44.9976 63.323 44.9976 64.1563C44.9976 64.9896 44.8348 65.7058 44.5093 66.3047C44.1838 66.9011 43.7229 67.3594 43.1265 67.6797C42.5302 67.9975 41.8257 68.1563 41.0132 68.1563ZM40.107 66.3126H40.9351C41.3309 66.3126 41.6682 66.2488 41.9468 66.1212C42.2281 65.9936 42.4416 65.7735 42.5874 65.461C42.7359 65.1485 42.8101 64.7136 42.8101 64.1563C42.8101 63.599 42.7346 63.1641 42.5835 62.8516C42.4351 62.5391 42.2163 62.3191 41.9273 62.1915C41.6408 62.0639 41.2893 62.0001 40.8726 62.0001H40.107V66.3126ZM47.0475 68.1563V60.1563H52.8131V61.9063H49.2194V63.2813H52.5162V65.0313H49.2194V66.4063H52.7975V68.1563H47.0475Z" fill="#559F4B"/>
</g>
<rect x="0.5" y="0.710205" width="71" height="71" rx="15.5" stroke="url(#paint1_linear_1114_6114)"/>
<defs>
<linearGradient id="paint0_linear_1114_6114" x1="21.5" y1="0.210206" x2="36" y2="72.2102" gradientUnits="userSpaceOnUse">
<stop stop-color="white"/>
<stop offset="1" stop-color="white" stop-opacity="0"/>
</linearGradient>
<linearGradient id="paint1_linear_1114_6114" x1="36" y1="0.210205" x2="36" y2="72.2102" gradientUnits="userSpaceOnUse">
<stop stop-color="white" stop-opacity="0.43"/>
<stop offset="1" stop-color="#559F4B"/>
</linearGradient>
<clipPath id="clip0_1114_6114">
<rect y="0.210205" width="72" height="72" rx="16" fill="white"/>
</clipPath>
</defs>
</svg>
