<svg width="72" height="73" viewBox="0 0 72 73" fill="none" xmlns="http://www.w3.org/2000/svg">
<g clip-path="url(#clip0_1114_6123)">
<rect y="0.946045" width="72" height="72" rx="16" fill="#1DB6DD"/>
<rect y="0.946045" width="72" height="72" rx="16" fill="url(#paint0_linear_1114_6123)" fill-opacity="0.25"/>
<path d="M0 57.8922H72C72 66.2062 65.2601 72.946 56.9461 72.946H15.0539C6.73986 72.946 0 66.2062 0 57.8922Z" fill="white"/>
<path d="M16.138 68.8922V60.8922H19.5912C20.1849 60.8922 20.7044 61.0002 21.1497 61.2164C21.5951 61.4325 21.9414 61.7437 22.1888 62.15C22.4362 62.5562 22.5599 63.0432 22.5599 63.6109C22.5599 64.1838 22.4323 64.6669 22.1771 65.0601C21.9245 65.4533 21.569 65.7502 21.1107 65.9507C20.655 66.1513 20.1224 66.2515 19.513 66.2515H17.4505V64.564H19.0755C19.3307 64.564 19.5482 64.5328 19.7279 64.4703C19.9102 64.4052 20.0495 64.3023 20.1458 64.1617C20.2448 64.0211 20.2943 63.8375 20.2943 63.6109C20.2943 63.3817 20.2448 63.1955 20.1458 63.0523C20.0495 62.9065 19.9102 62.7997 19.7279 62.732C19.5482 62.6617 19.3307 62.6265 19.0755 62.6265H18.3099V68.8922H16.138ZM20.8255 65.2203L22.8255 68.8922H20.4662L18.513 65.2203H20.8255ZM24.5307 68.8922V60.8922H30.2963V62.6422H26.7026V64.0172H29.9994V65.7672H26.7026V67.1422H30.2807V68.8922H24.5307ZM34.4966 68.8922H32.1528L34.7935 60.8922H37.7622L40.4028 68.8922H38.0591L36.3091 63.0953H36.2466L34.4966 68.8922ZM34.0591 65.7359H38.4653V67.3609H34.0591V65.7359ZM49.3111 63.8922H47.108C47.0924 63.7099 47.0507 63.5445 46.983 63.3961C46.9179 63.2476 46.8267 63.12 46.7096 63.0132C46.595 62.9039 46.4556 62.8205 46.2916 62.7632C46.1275 62.7033 45.9413 62.6734 45.733 62.6734C45.3684 62.6734 45.0598 62.7619 44.8072 62.939C44.5572 63.1161 44.3671 63.37 44.2369 63.7007C44.1093 64.0315 44.0455 64.4286 44.0455 64.8922C44.0455 65.3817 44.1106 65.7919 44.2408 66.1226C44.3736 66.4507 44.565 66.6981 44.815 66.8648C45.065 67.0289 45.3658 67.1109 45.7174 67.1109C45.9179 67.1109 46.0976 67.0862 46.2564 67.0367C46.4153 66.9846 46.5533 66.9104 46.6705 66.814C46.7877 66.7177 46.8827 66.6018 46.9556 66.4664C47.0312 66.3283 47.0819 66.1734 47.108 66.0015L49.3111 66.0172C49.2851 66.3557 49.19 66.7007 49.026 67.0523C48.8619 67.4013 48.6288 67.7242 48.3267 68.0211C48.0273 68.3153 47.6562 68.5523 47.2135 68.732C46.7707 68.9117 46.2564 69.0015 45.6705 69.0015C44.9361 69.0015 44.2773 68.844 43.6939 68.5289C43.1132 68.2138 42.6536 67.7502 42.315 67.1382C41.9791 66.5263 41.8111 65.7776 41.8111 64.8922C41.8111 64.0015 41.983 63.2515 42.3267 62.6422C42.6705 62.0302 43.134 61.5679 43.7174 61.2554C44.3007 60.9403 44.9517 60.7828 45.6705 60.7828C46.1757 60.7828 46.6405 60.8518 47.065 60.9898C47.4895 61.1278 47.8619 61.3297 48.1822 61.5953C48.5025 61.8583 48.7603 62.1825 48.9556 62.5679C49.151 62.9533 49.2694 63.3948 49.3111 63.8922ZM51.1227 62.6422V60.8922H58.0758V62.6422H55.6696V68.8922H53.529V62.6422H51.1227Z" fill="#1DB6DD"/>
<path fill-rule="evenodd" clip-rule="evenodd" d="M41.0797 13.5275C34.6934 13.5275 29.2802 18.7143 29.2802 24.9899V36.2838C29.2802 37.2147 28.5255 37.9694 27.5945 37.9694C26.6636 37.9694 25.9089 37.2147 25.9089 36.2838V24.9899C25.9089 16.7427 32.9431 10.1562 41.0797 10.1562C49.2163 10.1562 56.2505 16.7427 56.2505 24.9899V48.2519C56.2505 49.1828 55.4958 49.9375 54.5649 49.9375C53.6339 49.9375 52.8792 49.1828 52.8792 48.2519V24.9899C52.8792 18.7143 47.466 13.5275 41.0797 13.5275Z" fill="white"/>
<path fill-rule="evenodd" clip-rule="evenodd" d="M47.8223 35.1038C48.7533 35.1038 49.5079 35.8585 49.5079 36.7895V48.2519C49.5079 49.1828 48.7533 49.9375 47.8223 49.9375C46.8913 49.9375 46.1366 49.1828 46.1366 48.2519V36.7895C46.1366 35.8585 46.8913 35.1038 47.8223 35.1038Z" fill="white"/>
<path fill-rule="evenodd" clip-rule="evenodd" d="M41.0797 35.1038C42.0107 35.1038 42.7654 35.8585 42.7654 36.7895V48.2519C42.7654 49.1828 42.0107 49.9375 41.0797 49.9375C40.1488 49.9375 39.3941 49.1828 39.3941 48.2519V36.7895C39.3941 35.8585 40.1488 35.1038 41.0797 35.1038Z" fill="white"/>
<path fill-rule="evenodd" clip-rule="evenodd" d="M13.4351 35.2724C14.3661 35.2724 15.1207 36.0271 15.1207 36.958C15.1207 42.1555 18.8519 46.2291 23.8861 46.2291C28.9203 46.2291 32.6515 42.1555 32.6515 36.958C32.6515 36.0271 33.4062 35.2724 34.3371 35.2724C35.2681 35.2724 36.0228 36.0271 36.0228 36.958C36.0228 43.7925 30.9995 49.6004 23.8861 49.6004C16.7727 49.6004 11.7495 43.7925 11.7495 36.958C11.7495 36.0271 12.5041 35.2724 13.4351 35.2724Z" fill="white"/>
</g>
<rect x="0.5" y="1.44604" width="71" height="71" rx="15.5" stroke="url(#paint1_linear_1114_6123)"/>
<defs>
<linearGradient id="paint0_linear_1114_6123" x1="21.5" y1="0.946045" x2="36" y2="72.946" gradientUnits="userSpaceOnUse">
<stop stop-color="white"/>
<stop offset="1" stop-color="white" stop-opacity="0"/>
</linearGradient>
<linearGradient id="paint1_linear_1114_6123" x1="36" y1="0.946045" x2="36" y2="72.946" gradientUnits="userSpaceOnUse">
<stop stop-color="white" stop-opacity="0.43"/>
<stop offset="1" stop-color="#1DB6DD"/>
</linearGradient>
<clipPath id="clip0_1114_6123">
<rect y="0.946045" width="72" height="72" rx="16" fill="white"/>
</clipPath>
</defs>
</svg>
