<svg width="200" height="200" viewBox="0 0 200 200" fill="none" xmlns="http://www.w3.org/2000/svg">
<g clip-path="url(#clip0_1602_1036)">
<rect width="200" height="200" fill="#060606"/>
<line x1="152.35" y1="-1.5299e-08" x2="152.35" y2="200" stroke="white" stroke-opacity="0.15" stroke-width="0.7"/>
<line x1="48.35" y1="-1.5299e-08" x2="48.35" y2="200" stroke="white" stroke-opacity="0.15" stroke-width="0.7"/>
<line x1="100.35" y1="-1.5299e-08" x2="100.35" y2="200" stroke="white" stroke-opacity="0.15" stroke-width="0.7"/>
<line x1="178.35" y1="-1.5299e-08" x2="178.35" y2="200" stroke="white" stroke-opacity="0.15" stroke-width="0.7"/>
<line x1="74.35" y1="-1.5299e-08" x2="74.35" y2="200" stroke="white" stroke-opacity="0.15" stroke-width="0.7"/>
<line x1="22.35" y1="-1.5299e-08" x2="22.35" y2="200" stroke="white" stroke-opacity="0.15" stroke-width="0.7"/>
<line x1="126.35" y1="-1.5299e-08" x2="126.35" y2="200" stroke="white" stroke-opacity="0.15" stroke-width="0.7"/>
<line x1="323" y1="100.35" x2="-27" y2="100.35" stroke="white" stroke-opacity="0.15" stroke-width="0.7"/>
<line x1="323" y1="152.35" x2="-27" y2="152.35" stroke="white" stroke-opacity="0.15" stroke-width="0.7"/>
<line x1="323" y1="48.35" x2="-27" y2="48.35" stroke="white" stroke-opacity="0.15" stroke-width="0.7"/>
<line x1="323" y1="126.35" x2="-27" y2="126.35" stroke="white" stroke-opacity="0.15" stroke-width="0.7"/>
<line x1="323" y1="22.35" x2="-27" y2="22.35" stroke="white" stroke-opacity="0.15" stroke-width="0.7"/>
<line x1="323" y1="178.35" x2="-27" y2="178.35" stroke="white" stroke-opacity="0.15" stroke-width="0.7"/>
<line x1="323" y1="74.35" x2="-27" y2="74.35" stroke="white" stroke-opacity="0.15" stroke-width="0.7"/>
<rect x="-29" width="350" height="200" fill="url(#paint0_radial_1602_1036)"/>
<g style="mix-blend-mode:multiply">
<rect x="-29" width="350" height="200" fill="url(#paint1_radial_1602_1036)"/>
</g>
<g style="mix-blend-mode:hard-light">
<rect x="-29" width="350" height="200" fill="url(#paint2_radial_1602_1036)"/>
</g>
</g>
<defs>
<clipPath id="clip0_1602_1036">
<rect width="200" height="200" fill="white"/>
</clipPath>
</defs>
</svg>
