<svg width="630" height="630" viewBox="0 0 630 630" fill="none" xmlns="http://www.w3.org/2000/svg">
<g clip-path="url(#clip0_20_1711)">
<rect width="630" height="630" fill="#001114"/>
<g filter="url(#filter0_f_20_1711)">
<path d="M-119 890H681L581 650H-19L-119 890Z" fill="url(#paint0_linear_20_1711)"/>
</g>
<g filter="url(#filter1_f_20_1711)">
<ellipse cx="281" cy="830" rx="220" ry="117" fill="url(#paint1_radial_20_1711)"/>
</g>
<g opacity="0.2">
<path d="M630 0H0V630H630V0Z" fill="url(#paint2_radial_20_1711)"/>
<path d="M630 0H0V630H630V0Z" fill="url(#paint3_radial_20_1711)"/>
</g>
<g filter="url(#filter2_f_20_1711)">
<path d="M-315 -37H885L735 -277H-165L-315 -37Z" fill="url(#paint4_linear_20_1711)"/>
</g>
<g filter="url(#filter3_f_20_1711)">
<ellipse cx="285" cy="-97" rx="330" ry="117" fill="url(#paint5_radial_20_1711)"/>
</g>
<g opacity="0.08">
<path d="M0 0H163V630H0V0Z" fill="url(#paint6_radial_20_1711)"/>
<path d="M0 0H163V630H0V0Z" fill="url(#paint7_radial_20_1711)"/>
</g>
<g opacity="0.08">
<path d="M447 0H681V630H447V0Z" fill="url(#paint8_radial_20_1711)"/>
<path d="M447 0H681V630H447V0Z" fill="url(#paint9_radial_20_1711)"/>
</g>
<mask id="path-8-inside-1_20_1711" fill="white">
<path d="M352 2.8238e-08L352 407H342L342 0L352 2.8238e-08Z"/>
</mask>
<path d="M352 2.8238e-08L352 407H342L342 0L352 2.8238e-08Z" fill="url(#paint10_linear_20_1711)"/>
<path d="M352 2.8238e-08L362 6.79422e-06L362 -10L352 -10L352 2.8238e-08ZM352 407V417H362L362 407L352 407ZM342 407L332 407L332 417H342V407ZM342 0L342 -10L332 -10L332 -6.76619e-06L342 0ZM342 -6.73774e-06L342 407L362 407L362 6.79422e-06L342 -6.73774e-06ZM352 397H342V417H352V397ZM352 407L352 6.76619e-06L332 -6.76619e-06L332 407L352 407ZM342 10L352 10L352 -10L342 -10L342 10Z" fill="url(#paint11_angular_20_1711)" fill-opacity="0.4" style="mix-blend-mode:color-dodge" mask="url(#path-8-inside-1_20_1711)"/>
<mask id="path-10-inside-2_20_1711" fill="white">
<path d="M257 4.16284e-08L257 600H247L247 0L257 4.16284e-08Z"/>
</mask>
<path d="M257 4.16284e-08L257 600H247L247 0L257 4.16284e-08Z" fill="url(#paint12_linear_20_1711)"/>
<path d="M257 4.16284e-08L267 4.63122e-06L267 -10L257 -10L257 4.16284e-08ZM257 600V610H267L267 600L257 600ZM247 600L237 600L237 610H247V600ZM247 0L247 -10L237 -10L237 -4.58973e-06L247 0ZM247 -4.54796e-06L247 600L267 600L267 4.63122e-06L247 -4.54796e-06ZM257 590H247V610H257V590ZM257 600L257 4.58973e-06L237 -4.58973e-06L237 600L257 600ZM247 10L257 10L257 -10L247 -10L247 10Z" fill="url(#paint13_angular_20_1711)" fill-opacity="0.4" style="mix-blend-mode:color-dodge" mask="url(#path-10-inside-2_20_1711)"/>
<mask id="path-12-inside-3_20_1711" fill="white">
<path d="M98 2.22018e-08L97.9997 320H88L88.0003 0L98 2.22018e-08Z"/>
</mask>
<path d="M98 2.22018e-08L97.9997 320H88L88.0003 0L98 2.22018e-08Z" fill="url(#paint14_linear_20_1711)"/>
<path d="M98 2.22018e-08L108 8.62768e-06L108 -10L98 -10L98 2.22018e-08ZM97.9997 320V330H108L108 320L97.9997 320ZM88 320L78 320L78 330H88V320ZM88.0003 0L88.0003 -10L78.0003 -10L78.0003 -8.60574e-06L88.0003 0ZM88 -8.58328e-06L87.9997 320L108 320L108 8.62768e-06L88 -8.58328e-06ZM97.9997 310H88V330H97.9997V310ZM98 320L98.0003 8.60574e-06L78.0003 -8.60574e-06L78 320L98 320ZM88.0003 10L98 10L98 -10L88.0003 -10L88.0003 10Z" fill="url(#paint15_angular_20_1711)" fill-opacity="0.4" style="mix-blend-mode:color-dodge" mask="url(#path-12-inside-3_20_1711)"/>
<mask id="path-14-inside-4_20_1711" fill="white">
<path d="M447 4.16284e-08L447 600H437L437 0L447 4.16284e-08Z"/>
</mask>
<path d="M447 4.16284e-08L447 600H437L437 0L447 4.16284e-08Z" fill="url(#paint16_linear_20_1711)"/>
<path d="M447 4.16284e-08L457 4.63122e-06L457 -10L447 -10L447 4.16284e-08ZM447 600V610H457L457 600L447 600ZM437 600L427 600L427 610H437V600ZM437 0L437 -10L427 -10L427 -4.58973e-06L437 0ZM437 -4.54796e-06L437 600L457 600L457 4.63122e-06L437 -4.54796e-06ZM447 590H437V610H447V590ZM447 600L447 4.58973e-06L427 -4.58973e-06L427 600L447 600ZM437 10L447 10L447 -10L437 -10L437 10Z" fill="url(#paint17_angular_20_1711)" fill-opacity="0.4" style="mix-blend-mode:color-dodge" mask="url(#path-14-inside-4_20_1711)"/>
<mask id="path-16-inside-5_20_1711" fill="white">
<path d="M173 4.37099e-08L173 630H163L163 0L173 4.37099e-08Z"/>
</mask>
<path d="M173 4.37099e-08L173 630H163L163 0L173 4.37099e-08Z" fill="url(#paint18_linear_20_1711)"/>
<path d="M173 4.37099e-08L183 4.41475e-06L183 -10L173 -10L173 4.37099e-08ZM173 630V640H183L183 630L173 630ZM163 630L153 630L153 640H163V630ZM163 0L163 -10L153 -10L153 -4.37117e-06L163 0ZM163 -4.32733e-06L163 630L183 630L183 4.41475e-06L163 -4.32733e-06ZM173 620H163V640H173V620ZM173 630L173 4.37117e-06L153 -4.37117e-06L153 630L173 630ZM163 10L173 10L173 -10L163 -10L163 10Z" fill="url(#paint19_angular_20_1711)" fill-opacity="0.4" style="mix-blend-mode:color-dodge" mask="url(#path-16-inside-5_20_1711)"/>
<mask id="path-18-inside-6_20_1711" fill="white">
<path d="M542 4.37099e-08L542 630H532L532 0L542 4.37099e-08Z"/>
</mask>
<path d="M542 4.37099e-08L542 630H532L532 0L542 4.37099e-08Z" fill="url(#paint20_linear_20_1711)"/>
<path d="M542 4.37099e-08L552 4.4185e-06L552 -10L542 -10L542 4.37099e-08ZM542 630V640H552L552 630L542 630ZM532 630L522 630L522 640H532V630ZM532 0L532 -10L522 -10L522 -4.37117e-06L532 0ZM532 -4.33108e-06L532 630L552 630L552 4.4185e-06L532 -4.33108e-06ZM542 620H532V640H542V620ZM542 630L542 4.37117e-06L522 -4.37117e-06L522 630L542 630ZM532 10L542 10L542 -10L532 -10L532 10Z" fill="url(#paint21_angular_20_1711)" fill-opacity="0.4" style="mix-blend-mode:color-dodge" mask="url(#path-18-inside-6_20_1711)"/>
</g>
<defs>
<filter id="filter0_f_20_1711" x="-239" y="530" width="1040" height="480" filterUnits="userSpaceOnUse" color-interpolation-filters="sRGB">
<feFlood flood-opacity="0" result="BackgroundImageFix"/>
<feBlend mode="normal" in="SourceGraphic" in2="BackgroundImageFix" result="shape"/>
<feGaussianBlur stdDeviation="60" result="effect1_foregroundBlur_20_1711"/>
</filter>
<filter id="filter1_f_20_1711" x="-59" y="593" width="680" height="474" filterUnits="userSpaceOnUse" color-interpolation-filters="sRGB">
<feFlood flood-opacity="0" result="BackgroundImageFix"/>
<feBlend mode="normal" in="SourceGraphic" in2="BackgroundImageFix" result="shape"/>
<feGaussianBlur stdDeviation="60" result="effect1_foregroundBlur_20_1711"/>
</filter>
<filter id="filter2_f_20_1711" x="-435" y="-397" width="1440" height="480" filterUnits="userSpaceOnUse" color-interpolation-filters="sRGB">
<feFlood flood-opacity="0" result="BackgroundImageFix"/>
<feBlend mode="normal" in="SourceGraphic" in2="BackgroundImageFix" result="shape"/>
<feGaussianBlur stdDeviation="60" result="effect1_foregroundBlur_20_1711"/>
</filter>
<filter id="filter3_f_20_1711" x="-165" y="-334" width="900" height="474" filterUnits="userSpaceOnUse" color-interpolation-filters="sRGB">
<feFlood flood-opacity="0" result="BackgroundImageFix"/>
<feBlend mode="normal" in="SourceGraphic" in2="BackgroundImageFix" result="shape"/>
<feGaussianBlur stdDeviation="60" result="effect1_foregroundBlur_20_1711"/>
</filter>
<linearGradient id="paint0_linear_20_1711" x1="681" y1="761.366" x2="139.157" y2="486.792" gradientUnits="userSpaceOnUse">
<stop stop-color="#CAECF1"/>
<stop offset="1" stop-color="#00B0BB"/>
</linearGradient>
<radialGradient id="paint1_radial_20_1711" cx="0" cy="0" r="1" gradientUnits="userSpaceOnUse" gradientTransform="translate(81 931.045) rotate(-31.5659) scale(457.911 460.121)">
<stop stop-color="#00BBBB"/>
<stop offset="0.712616" stop-color="#00DB65"/>
</radialGradient>
<radialGradient id="paint2_radial_20_1711" cx="0" cy="0" r="1" gradientUnits="userSpaceOnUse" gradientTransform="translate(507.937 9) rotate(110.923) scale(479.626 434.24)">
<stop stop-color="#C2E6EB"/>
<stop offset="0.75" stop-color="#C2E6EB" stop-opacity="0"/>
</radialGradient>
<radialGradient id="paint3_radial_20_1711" cx="0" cy="0" r="1" gradientUnits="userSpaceOnUse" gradientTransform="translate(-201 137) rotate(30.7601) scale(625.679 248.615)">
<stop stop-color="#C2E6EB"/>
<stop offset="0.75" stop-color="#C2E6EB" stop-opacity="0"/>
</radialGradient>
<linearGradient id="paint4_linear_20_1711" x1="885" y1="-165.634" x2="237.585" y2="-657.741" gradientUnits="userSpaceOnUse">
<stop stop-color="#CAECF1"/>
<stop offset="1" stop-color="#00B0BB"/>
</linearGradient>
<radialGradient id="paint5_radial_20_1711" cx="0" cy="0" r="1" gradientUnits="userSpaceOnUse" gradientTransform="translate(-15.0001 4.04547) rotate(-22.2735) scale(632.425 499.73)">
<stop stop-color="#00BBBB"/>
<stop offset="0.712616" stop-color="#00DB65"/>
</radialGradient>
<radialGradient id="paint6_radial_20_1711" cx="0" cy="0" r="1" gradientUnits="userSpaceOnUse" gradientTransform="translate(56.6956 -12) rotate(89.2809) scale(242.019 122.64)">
<stop stop-color="#C2E6EB"/>
<stop offset="0.75" stop-color="#C2E6EB" stop-opacity="0"/>
</radialGradient>
<radialGradient id="paint7_radial_20_1711" cx="0" cy="0" r="1" gradientUnits="userSpaceOnUse" gradientTransform="translate(186.286 149) rotate(105.875) scale(185.058 116.508)">
<stop stop-color="#C2E6EB"/>
<stop offset="0.75" stop-color="#C2E6EB" stop-opacity="0"/>
</radialGradient>
<radialGradient id="paint8_radial_20_1711" cx="0" cy="0" r="1" gradientUnits="userSpaceOnUse" gradientTransform="translate(447) rotate(69.5529) scale(245.466 108.312)">
<stop stop-color="#C2E6EB"/>
<stop offset="0.75" stop-color="#C2E6EB" stop-opacity="0"/>
</radialGradient>
<radialGradient id="paint9_radial_20_1711" cx="0" cy="0" r="1" gradientUnits="userSpaceOnUse" gradientTransform="translate(691.174 216) rotate(119.295) scale(276.342 147.986)">
<stop stop-color="#C2E6EB"/>
<stop offset="0.75" stop-color="#C2E6EB" stop-opacity="0"/>
</radialGradient>
<linearGradient id="paint10_linear_20_1711" x1="347" y1="0" x2="347" y2="407" gradientUnits="userSpaceOnUse">
<stop stop-color="#A6D8DD" stop-opacity="0.1"/>
<stop offset="0.416952" stop-color="#A6D8DD" stop-opacity="0.05"/>
<stop offset="0.570151" stop-color="#A6D8DD" stop-opacity="0"/>
</linearGradient>
<radialGradient id="paint11_angular_20_1711" cx="0" cy="0" r="1" gradientUnits="userSpaceOnUse" gradientTransform="translate(1102.01 154.402) rotate(180) scale(1230.01 79.4619)">
<stop stop-color="#06FF4C" stop-opacity="0"/>
<stop offset="0.0001" stop-color="#06FF4C"/>
<stop offset="0.155779" stop-color="#06FF4C" stop-opacity="0"/>
</radialGradient>
<linearGradient id="paint12_linear_20_1711" x1="252" y1="0" x2="252" y2="600" gradientUnits="userSpaceOnUse">
<stop stop-color="#A6D8DD" stop-opacity="0.1"/>
<stop offset="0.416952" stop-color="#A6D8DD" stop-opacity="0.05"/>
<stop offset="0.570151" stop-color="#A6D8DD" stop-opacity="0"/>
</linearGradient>
<radialGradient id="paint13_angular_20_1711" cx="0" cy="0" r="1" gradientUnits="userSpaceOnUse" gradientTransform="translate(1007.01 227.619) rotate(180) scale(1230.01 117.143)">
<stop stop-color="#C2E6EB" stop-opacity="0"/>
<stop offset="0.0001" stop-color="#C2E6EB"/>
<stop offset="0.155779" stop-color="#C2E6EB" stop-opacity="0"/>
</radialGradient>
<linearGradient id="paint14_linear_20_1711" x1="93" y1="0" x2="93" y2="320" gradientUnits="userSpaceOnUse">
<stop stop-color="#A6D8DD" stop-opacity="0.1"/>
<stop offset="0.416952" stop-color="#A6D8DD" stop-opacity="0.05"/>
<stop offset="0.570151" stop-color="#A6D8DD" stop-opacity="0"/>
</linearGradient>
<radialGradient id="paint15_angular_20_1711" cx="0" cy="0" r="1" gradientUnits="userSpaceOnUse" gradientTransform="translate(588.004 84.5) rotate(179.889) scale(955.009 48.526)">
<stop stop-color="#06FF4C" stop-opacity="0"/>
<stop offset="0.0001" stop-color="#06FF4C"/>
<stop offset="0.168278" stop-color="#06FF4C" stop-opacity="0"/>
</radialGradient>
<linearGradient id="paint16_linear_20_1711" x1="442" y1="0" x2="442" y2="600" gradientUnits="userSpaceOnUse">
<stop stop-color="#A6D8DD" stop-opacity="0.1"/>
<stop offset="0.223333" stop-color="#A6D8DD" stop-opacity="0.05"/>
<stop offset="0.358333" stop-color="#A6D8DD" stop-opacity="0"/>
</linearGradient>
<radialGradient id="paint17_angular_20_1711" cx="0" cy="0" r="1" gradientUnits="userSpaceOnUse" gradientTransform="translate(1117 156) rotate(-180) scale(1200.01 120)">
<stop stop-color="#C2E6EB" stop-opacity="0"/>
<stop offset="0.0001" stop-color="#C2E6EB"/>
<stop offset="0.165309" stop-color="#C2E6EB" stop-opacity="0"/>
</radialGradient>
<linearGradient id="paint18_linear_20_1711" x1="168" y1="0" x2="168" y2="630" gradientUnits="userSpaceOnUse">
<stop stop-color="#A6D8DD" stop-opacity="0.1"/>
<stop offset="0.416952" stop-color="#A6D8DD" stop-opacity="0.05"/>
<stop offset="0.570151" stop-color="#A6D8DD" stop-opacity="0"/>
</linearGradient>
<radialGradient id="paint19_angular_20_1711" cx="0" cy="0" r="1" gradientUnits="userSpaceOnUse" gradientTransform="translate(1025.5 461) rotate(-180) scale(1303.5 130.349)">
<stop stop-color="#C2E6EB" stop-opacity="0"/>
<stop offset="0.0001" stop-color="#C2E6EB"/>
<stop offset="0.0889349" stop-color="#C2E6EB" stop-opacity="0"/>
</radialGradient>
<linearGradient id="paint20_linear_20_1711" x1="537" y1="0" x2="537" y2="630" gradientUnits="userSpaceOnUse">
<stop stop-color="#A6D8DD" stop-opacity="0.1"/>
<stop offset="0.592533" stop-color="#A6D8DD" stop-opacity="0.05"/>
<stop offset="0.841022" stop-color="#A6D8DD" stop-opacity="0"/>
</linearGradient>
<radialGradient id="paint21_angular_20_1711" cx="0" cy="0" r="1" gradientUnits="userSpaceOnUse" gradientTransform="translate(1284 533) rotate(180) scale(1158.5 115.849)">
<stop stop-color="#C2E6EB" stop-opacity="0"/>
<stop offset="0.0001" stop-color="#C2E6EB"/>
<stop offset="0.106854" stop-color="#C2E6EB" stop-opacity="0"/>
</radialGradient>
<clipPath id="clip0_20_1711">
<rect width="630" height="630" fill="white"/>
</clipPath>
</defs>
</svg>
