<svg width="400" height="400" viewBox="0 0 400 400" fill="none" xmlns="http://www.w3.org/2000/svg">
<path d="M105.773 284.825C49.5931 249.753 31.0615 234.228 29.4608 211.222C29.194 206.563 30.2611 198.673 32.221 193.05L26.9263 189.54C22.6987 196.292 20 205.168 20 213.305C20 226.604 24.2379 236.659 29.4608 244.694C37.3516 256.843 45.6529 264.488 66.1136 279.838C88.1545 296.369 103.197 315.67 111.858 335.885H114.987V312.951C144.755 329.861 171.024 345.746 183.942 374.169H187.062C182.003 344.72 165.339 322.012 105.773 284.825ZM364.539 374.21H360.701C360.701 353.257 341.482 347.521 321.36 347.521H258.438C260.47 357.864 261.404 369.962 259.854 381.393H256.714C250.896 334.274 224.279 310.96 187.051 285.954V307.42H183.922C174.02 285.277 152.297 264.529 131.734 249.794C126.264 245.894 120.569 241.852 114.957 237.86V260.958H111.827C103.105 238.034 87.2721 220.929 64.6873 200.54C40.276 178.581 30.4561 165.437 24.7304 150.322C21.2621 141.169 20.2976 133.771 20.1642 123.725C19.9487 105.758 29.0503 89.5249 40.3581 83.4708V92.1722C34.7555 99.591 31.8516 109.021 31.8311 118.574C31.8003 127.409 33.9141 137.219 38.3059 145.571C52.0456 171.717 98.3233 203.814 127.691 223.546C219.066 284.825 237.311 295.517 252.477 328.035C254.17 331.657 255.852 336.521 257.258 342.195C270.454 340.153 318.343 332.847 327.157 331.452C328.871 331.175 332.39 330.754 334.217 330.631C342.477 325.418 348.901 318.769 354.534 310.478L319.543 307.759C317.727 311.771 315.952 315.157 314.382 317.856H311.509C312.473 314.306 313.305 310.796 314.033 307.338L305.065 306.702V304.773L314.762 303.572C316.609 293.67 317.501 284.292 317.676 275.539L273.543 273.025C273.327 277.56 273.286 281.819 273.44 285.79H270.628C269.664 281.378 268.925 277.006 268.371 272.748L258.705 272.173V269.239L267.899 268.736C266.606 257.048 266.524 246.161 266.986 236.793L241.2 235.633C242.4 237.911 243.662 240.179 244.545 242.693C250.127 258.259 248.793 276.483 246.966 284.887H243.837C243.375 275.18 240.122 263.267 237.013 256.022C229.881 239.204 213.884 224.326 187.041 207.087V228.574H183.912C174.995 200.356 152.769 184.646 119.738 167.684C92.4847 153.698 84.0193 136.839 85.5585 110.755L94.773 116.214C97.1228 140.595 115.86 154.693 135.489 154.55C147.043 154.447 157.869 152.908 168.315 150.835C183.419 147.767 197.395 145.192 209.062 149.306V134.91H199.888C196.605 137.732 189.955 141.005 180.176 141.179C169.433 141.364 149.095 135.177 149.095 112.448C149.095 92.7058 165.79 89.5454 179.386 89.5454C186.692 89.5454 198.8 89.2889 202.905 89.0734C205.932 88.8681 208.21 88.4167 209.698 86.939C211.237 85.4307 211.699 83.871 212.048 81.8495C212.479 79.3971 212.479 76.9037 212.479 72.6658V58.2386H149.444V83.2245L125.587 74.1434V68.1612H136.998V58.2386H94.4857V37.5111H79.9969C72.26 37.5111 63.3226 42.9495 62.6761 53.4672C62.0912 63.5539 66.6267 72.0604 77.0212 72.0604H78.8785V84.1378H77.0212C58.8077 84.1378 45.0988 70.4699 45.0988 52.3282C45.0988 33.4067 61.1985 19 80.6844 19H111.427V39.7378H231.02V70.3878C231.02 75.5594 230.723 82.4857 230.23 86.857C229.861 90.0584 228.743 95.7944 222.709 100.412C219.046 103.182 213.546 104.301 204.639 104.342C201.715 104.352 193.239 104.219 183.08 103.583C169.454 102.71 165.575 107.985 165.021 112.869C164.908 113.895 164.908 114.89 165.041 115.845C171.424 110.919 180.454 107.42 190.694 110.663C208.733 116.337 213.895 116.83 223.294 109.452L224.248 111.556C223.222 113.125 221.426 115.383 218.789 117.384H227.501V164.606L254.631 148.331H330.81C330.81 148.331 362.989 165.15 368.274 167.92C372.953 170.383 374.789 173.358 375.508 177.719C376.134 181.362 375.169 185.98 373.394 188.935C372.275 190.782 363.523 205.117 358.915 212.771C371.855 226.778 380.587 246.377 380.587 268.202C380.587 287.986 373.271 313.495 349.496 332.458C359.962 335.885 366.663 341.59 371.927 349.091L364.539 374.21ZM194.706 119.929C184.004 117.579 178.032 118.903 171.886 124.762C174.902 126.198 178.668 126.978 182.824 126.701C188.847 126.27 192.562 122.679 194.706 119.929ZM188.539 187.97L218.687 169.9C212.756 166.976 206.209 165.098 198.452 165.006C188.057 164.821 170.521 169.582 162.055 170.906C165.842 173.482 179.284 182.08 188.539 187.97ZM323.094 189.889L327.27 183.999L320.805 175.39L321.883 173.471L340.055 183.271L336.084 195.297C339.029 196.713 341.728 198.478 345.309 200.858L357.068 181.547L326.624 165.642H259.382L204.793 198.478C215.034 205.599 224.494 213.295 231.195 221.052C245.807 199.76 271.511 186.205 296.969 186.205C305.291 186.216 314.977 187.108 323.094 189.889ZM317.625 266.109C317.255 256.063 316.014 246.972 314.32 238.958L278.683 237.347C276.252 248.193 274.63 258.772 273.892 268.438L317.625 266.109ZM329.61 239.666C330.749 248.87 330.892 257.479 330.287 265.432L365.595 263.585C364.71 255.74 362.478 248.107 358.998 241.02L329.61 239.666ZM311.632 228.112C307.938 215.357 303.536 206.502 301.217 202.336C299.727 202.249 298.235 202.208 296.743 202.213C294.25 202.213 291.756 202.531 289.345 202.787C285.784 211.704 282.88 220.703 280.52 229.836L311.632 228.112ZM321.421 206.707C324.058 213.798 326.039 220.632 327.486 227.229L349.054 226.049C341.575 217.427 332.083 210.783 321.421 206.707ZM361.122 297.775C363.646 291.628 365.257 285.728 365.739 278.258L329.045 276.175C327.373 286.457 324.643 295.394 321.708 302.71L361.122 297.775ZM270.628 208.154C258.346 213.654 249.87 221.134 242.297 231.867L267.417 230.554C268.32 219.4 269.787 211.981 270.628 208.154Z" fill="#FFD200"/>
</svg>
