<svg width="160" height="160" viewBox="0 0 160 160" fill="none" xmlns="http://www.w3.org/2000/svg">
    <rect width="160" height="160" fill="url(#paint0_linear_3601_5636)"/>
    <g filter="url(#filter0_dd_3601_5636)">
        <path d="M130.724 51.2231C131.643 50.1066 132.513 49.2863 133.336 48.7594C134.157 48.2348 135.389 47.6423 137.032 46.9854V46H112.29V46.9854C113.735 47.3144 114.82 47.6605 115.543 48.0205C116.266 48.3823 116.923 48.9245 117.515 49.647C119.156 51.6839 119.98 54.609 119.98 58.4199C119.98 61.77 119.304 65.6489 117.958 70.0511C116.611 74.4548 114.69 79.2524 112.191 84.4419L111.88 85.0785L101.407 60.1939C100.815 58.7495 100.337 57.3356 99.9765 55.9562C99.6146 54.575 99.4349 53.4907 99.4349 52.702C99.4349 49.483 101.21 47.5761 104.758 46.9854V46H65.0742V46.9854C66.3224 47.1815 67.2931 47.4286 67.9828 47.7254C68.6727 48.0205 69.2798 48.4315 69.8058 48.9555C71.317 50.4684 72.927 53.1956 74.636 57.1376L80.4518 70.7411L72.5304 86.6627L59.0208 55.6593C58.4297 54.2793 58.1328 53.0638 58.1328 52.0117C58.1328 50.7653 58.4447 49.7623 59.0693 49.0059C59.6942 48.2512 60.7283 47.5761 62.1744 46.9854V46H22V46.9854C23.9041 47.5111 25.3828 48.0545 26.4344 48.6118C27.4847 49.1698 28.4715 50.0088 29.3917 51.1259C30.5085 52.4403 31.7241 54.1803 33.0389 56.349C34.3535 58.5188 35.4702 60.6547 36.3906 62.7571L59.0787 113.068C59.4262 113.838 60.5135 113.857 60.8873 113.099L80.9451 72.4161L98.5864 112.956C98.9308 113.747 100.049 113.76 100.411 112.976L123.528 62.9532C124.514 60.7846 125.647 58.667 126.928 56.5955C128.21 54.5264 129.474 52.736 130.724 51.2231Z" fill="#D9D9D9"/>
    </g>
    <path d="M111.88 85.0785L109.728 89.4701L97.4068 60.1939C96.8155 58.7495 96.3371 57.3355 95.9765 55.9562C95.6146 54.575 95.4349 53.4907 95.4349 52.702C95.4349 49.4831 97.2101 47.5761 100.758 46.9854V46H104.758V46.9854C101.21 47.5761 99.4349 49.4831 99.4349 52.702C99.4349 53.4907 99.6146 54.575 99.9765 55.9562C100.337 57.3355 100.815 58.7495 101.407 60.1939L111.88 85.0785Z" fill="url(#paint1_radial_3601_5636)"/>
    <path d="M72.5304 86.6627L59.0208 55.6593C58.4297 54.2793 58.1328 53.0638 58.1328 52.0117C58.1328 50.7653 58.4447 49.7623 59.0693 49.0059C59.6942 48.2512 60.7283 47.5761 62.1744 46.9854V46H58.1744V46.9854C56.7283 47.5761 55.6942 48.2512 55.0693 49.0059C54.4447 49.7623 54.1328 50.7653 54.1328 52.0117C54.1328 53.0638 54.4297 54.2793 55.0208 55.6593L70.398 90.9487L72.5304 86.6627Z" fill="url(#paint2_radial_3601_5636)"/>
    <path d="M133.336 48.7594C132.513 49.2863 131.643 50.1066 130.724 51.2231C129.474 52.736 128.21 54.5264 126.928 56.5955C125.647 58.667 124.514 60.7846 123.528 62.9532L100.411 112.976C100.049 113.76 98.9308 113.747 98.5864 112.956L80.9451 72.4161L60.8872 113.099C60.5135 113.857 59.4262 113.838 59.0787 113.068L36.3906 62.7571C35.4702 60.6547 34.3535 58.5188 33.0389 56.349C31.7241 54.1803 30.5085 52.4403 29.3917 51.1259C28.4715 50.0088 27.4847 49.1698 26.4344 48.6118C25.3828 48.0545 23.9041 47.5111 22 46.9854V46H58.1744V46.9854C56.7283 47.5761 55.6942 48.2512 55.0693 49.0059C54.4447 49.7623 54.1328 50.7653 54.1328 52.0117C54.1328 53.0639 54.4297 54.2793 55.0208 55.6593L70.398 90.9487L80.4518 70.7411L74.636 57.1376C72.927 53.1956 71.317 50.4684 69.8058 48.9555C69.2798 48.4315 68.6727 48.0205 67.9828 47.7254C67.2931 47.4286 66.3224 47.1815 65.0742 46.9854V46H100.758V46.9854C97.2101 47.5761 95.4349 49.4831 95.4349 52.702C95.4349 53.4907 95.6146 54.575 95.9764 55.9562C96.3371 57.3356 96.8155 58.7495 97.4068 60.1939L109.728 89.4701L112.191 84.4419C114.69 79.2524 116.611 74.4548 117.958 70.0511C119.304 65.6489 119.98 61.77 119.98 58.4199C119.98 54.609 119.156 51.6839 117.515 49.647C116.923 48.9245 116.266 48.3823 115.543 48.0205C114.82 47.6605 113.735 47.3144 112.29 46.9854V46H137.032V46.9854C135.389 47.6423 134.157 48.2348 133.336 48.7594Z" fill="url(#paint3_radial_3601_5636)"/>
    <defs>
        <filter id="filter0_dd_3601_5636" x="13" y="38" width="135.032" height="87.6568" filterUnits="userSpaceOnUse" color-interpolation-filters="sRGB">
            <feFlood flood-opacity="0" result="BackgroundImageFix"/>
            <feColorMatrix in="SourceAlpha" type="matrix" values="0 0 0 0 0 0 0 0 0 0 0 0 0 0 0 0 0 0 127 0" result="hardAlpha"/>
            <feOffset dx="1" dy="2"/>
            <feGaussianBlur stdDeviation="5"/>
            <feComposite in2="hardAlpha" operator="out"/>
            <feColorMatrix type="matrix" values="0 0 0 0 0 0 0 0 0 0 0 0 0 0 0 0 0 0 0.16 0"/>
            <feBlend mode="normal" in2="BackgroundImageFix" result="effect1_dropShadow_3601_5636"/>
            <feColorMatrix in="SourceAlpha" type="matrix" values="0 0 0 0 0 0 0 0 0 0 0 0 0 0 0 0 0 0 127 0" result="hardAlpha"/>
            <feOffset dx="1" dy="2"/>
            <feGaussianBlur stdDeviation="1.5"/>
            <feComposite in2="hardAlpha" operator="out"/>
            <feColorMatrix type="matrix" values="0 0 0 0 0 0 0 0 0 0 0 0 0 0 0 0 0 0 0.48 0"/>
            <feBlend mode="normal" in2="effect1_dropShadow_3601_5636" result="effect2_dropShadow_3601_5636"/>
            <feBlend mode="normal" in="SourceGraphic" in2="effect2_dropShadow_3601_5636" result="shape"/>
        </filter>
        <linearGradient id="paint0_linear_3601_5636" x1="80" y1="-1.69873e-06" x2="137" y2="160" gradientUnits="userSpaceOnUse">
            <stop offset="0.238996" stop-color="#373737"/>
            <stop offset="1"/>
        </linearGradient>
        <radialGradient id="paint1_radial_3601_5636" cx="0" cy="0" r="1" gradientUnits="userSpaceOnUse" gradientTransform="translate(100 91) rotate(-110.695) scale(48.1041 62.6084)">
            <stop stop-color="#999999"/>
            <stop offset="1" stop-color="#626262"/>
        </radialGradient>
        <radialGradient id="paint2_radial_3601_5636" cx="0" cy="0" r="1" gradientUnits="userSpaceOnUse" gradientTransform="translate(100 91) rotate(-110.695) scale(48.1041 62.6084)">
            <stop stop-color="#999999"/>
            <stop offset="1" stop-color="#626262"/>
        </radialGradient>
        <radialGradient id="paint3_radial_3601_5636" cx="0" cy="0" r="1" gradientUnits="userSpaceOnUse" gradientTransform="translate(77 46) rotate(90) scale(73 228.423)">
            <stop offset="0.459833" stop-color="white"/>
            <stop offset="1" stop-color="#989898"/>
        </radialGradient>
    </defs>
</svg>