<svg width="20" height="20" viewBox="0 0 20 20" fill="none" xmlns="http://www.w3.org/2000/svg">
<path d="M7.03059 19.9999C8.84148 19.9999 10.3112 18.5066 10.3112 16.6666V13.3333H7.03059C5.21971 13.3333 3.75 14.8266 3.75 16.6666C3.75 18.5066 5.21971 19.9999 7.03059 19.9999Z" fill="#0ACF83"/>
<path d="M3.75 10.0001C3.75 8.16008 5.21971 6.66675 7.03059 6.66675H10.3112V13.3334H7.03059C5.21971 13.3334 3.75 11.8401 3.75 10.0001Z" fill="#A259FF"/>
<path d="M3.75 3.33333C3.75 1.49333 5.21971 0 7.03059 0H10.3112V6.66666H7.03059C5.21971 6.66666 3.75 5.17333 3.75 3.33333Z" fill="#F24E1E"/>
<path d="M10.311 0H13.5916C15.4025 0 16.8722 1.49333 16.8722 3.33333C16.8722 5.17333 15.4025 6.66666 13.5916 6.66666H10.311V0Z" fill="#FF7262"/>
<path d="M16.8722 10.0001C16.8722 11.8401 15.4025 13.3334 13.5916 13.3334C11.7807 13.3334 10.311 11.8401 10.311 10.0001C10.311 8.16008 11.7807 6.66675 13.5916 6.66675C15.4025 6.66675 16.8722 8.16008 16.8722 10.0001Z" fill="#1ABCFE"/>
</svg>
